<?xml version="1.0" encoding="utf-8"?>
<!-- Generator: Adobe Illustrator 19.2.1, SVG Export Plug-In . SVG Version: 6.00 Build 0)  -->
<svg version="1.1" id="layer" xmlns="http://www.w3.org/2000/svg" xmlns:xlink="http://www.w3.org/1999/xlink" x="0px" y="0px"
	 viewBox="0 0 652 652" style="enable-background:new 0 0 652 652;" xml:space="preserve">
<style type="text/css">
	.st0{fill:#242627;}
</style>
<g>
	<path class="st0" d="M148.7,252.5H51c-13.4,0-24.4,11-24.4,24.4v97.6c0,13.4,11,24.4,24.4,24.4h97.6c13.4,0,24.4-11,24.4-24.4
		v-97.6C173.1,263.4,162.1,252.5,148.7,252.5L148.7,252.5z M146.4,364.5c0,4.3-3.5,7.7-7.8,7.7H61c-4.3,0-7.8-3.5-7.8-7.7v-77.7
		c0-4.3,3.5-7.8,7.8-7.8h77.7c4.3,0,7.8,3.5,7.8,7.8L146.4,364.5L146.4,364.5z M119.8,341.2c0,2.4-2,4.4-4.4,4.4H84.3
		c-2.4,0-4.4-2-4.4-4.4v-31.1c0-2.4,2-4.4,4.4-4.4h31.1c2.4,0,4.4,2,4.4,4.4C119.8,310.1,119.8,341.2,119.8,341.2z M240.8,373.7
		c-8.7,0-17-3.3-22.9-9.2c-5.2-5.2-8.2-12-8.2-19.2h8.8c0,4.8,2,9.4,5.6,12.9c4.2,4.2,10.3,6.6,16.7,6.6h0.1
		c12.3,0,22.2-8.6,22.2-19.1c0-7.9-4.4-14.2-25.7-19.1c-8.7-2-14.5-4.7-18.4-8.4c-4.1-4-6.2-9.4-6.2-16.3c0-13.8,12.3-25,27.5-25
		c7.3,0,14.1,2.5,19.3,7c5.3,4.7,8.3,11,8.3,17.8h-8.8c0-8.9-8.4-16.1-18.8-16.1c-10.2,0-18.7,7.4-18.7,16.2c0,8,2.8,12.7,17.8,16.2
		c16,3.7,32.4,9.9,32.5,27.7c0,7.6-3.3,14.6-9.2,19.9C256.9,370.9,249.1,373.7,240.8,373.7L240.8,373.7z M344.4,398.7v-38.5h-0.2
		c-5.7,8.7-15.5,13.2-25.9,13.2c-19.9,0-35.7-14.9-35.7-35c0-19.9,16.2-34.7,35.7-34.7c10.3,0,20.2,4.5,25.9,13.4h0.2v-11.7h8.5
		v93.3H344.4L344.4,398.7z M318.3,311.4c-15.8,0-27.2,11.8-27.2,27.4c0,15.5,11.6,27,27.2,27c15.1,0,26.6-12.3,26.6-27.1
		C344.9,323.9,333.3,311.4,318.3,311.4z M501,371.9v-11.7h-0.2c-5.8,8.7-15.5,13.2-25.9,13.2c-19.9,0-35.7-14.9-35.7-35
		c0-19.9,16.1-34.7,35.7-34.7c10.4,0,20.2,4.4,25.9,13.4h0.2v-11.7h8.5v66.4H501L501,371.9z M474.8,311.4
		c-15.8,0-27.2,11.8-27.2,27.4c0,15.5,11.7,27,27.2,27c15.1,0,26.6-12.3,26.6-27.1C501.4,323.9,489.9,311.4,474.8,311.4z M534.9,333
		v38.9h-8.5v-66.4h8.5v9.6h0.2c3.7-8.5,10.1-10.7,18.7-11.3v9C542.2,313.7,534.9,321.1,534.9,333 M626.5,341.8H566
		c0.6,13.1,12.8,24,25.8,24c10.2,0,20.2-5.8,23.8-15.7h9c-4.8,13.8-18,23.3-32.7,23.3c-19.2,0-34.6-15.7-34.6-34.7
		c0-18.9,15.4-35,34.5-35c19.4,0,34.9,16.4,34.9,35.6C626.6,340.2,626.5,340.9,626.5,341.8 M591.9,311.4c-13.2,0-23.8,9.7-25.9,22.7
		h51.9C615.7,321.1,605.3,311.4,591.9,311.4 M418.8,372v-10.4h-0.2c-3.9,8.2-12.6,12-21.4,12c-8.7,0-17.4-3-22.9-10
		c-4.8-6-5.8-14-5.8-21.5v-36.9h8.5V342c0,13.8,5,23.9,20.3,23.9c5.6,0,10-1.5,14.2-5.4c5.9-5.6,7-12.2,7-20v-35.3h8.5V372
		L418.8,372L418.8,372z"/>
</g>
</svg>
